<svg width="24" height="26" viewBox="0 0 24 26" fill="none" xmlns="http://www.w3.org/2000/svg">
<path d="M19.5 5.75L18.4989 20.7661C18.4113 22.0812 18.3674 22.7389 18.0834 23.2375C17.8332 23.6765 17.456 24.0294 17.0014 24.2498C16.485 24.5 15.8259 24.5 14.5077 24.5H9.49221C8.17409 24.5 7.51502 24.5 6.99861 24.2498C6.54396 24.0294 6.16674 23.6765 5.91665 23.2375C5.63259 22.7389 5.58875 22.0812 5.50107 20.7661L4.5 5.75M2 5.75H22M17 5.75L16.6617 4.73509C16.3339 3.75156 16.1699 3.2598 15.8659 2.89622C15.5974 2.57516 15.2526 2.32665 14.8631 2.17348C14.422 2 13.9037 2 12.867 2H11.133C10.0963 2 9.578 2 9.13689 2.17348C8.7474 2.32665 8.4026 2.57516 8.13411 2.89622C7.83006 3.2598 7.66615 3.75156 7.3383 4.73509L7 5.75" stroke="#F7C600" stroke-width="3" stroke-linecap="round" stroke-linejoin="round"/>
</svg>
